<svg width="6" height="6" viewBox="0 0 1 1" version="1.1" xmlns="http://www.w3.org/2000/svg" xmlnsXlink="http://www.w3.org/1999/xlink" xmlSpace="preserve" xmlnsXerif="http://www.serif.com/" style="fill-rule:evenodd;clip-rule:evenodd;stroke-linejoin:round;stroke-miterlimit:2;"><rect id="Pattern1" x="0" y="0" width="0.96" height="0.96" style="fill:none;"/><clipPath id="_clip1"><rect x="0" y="0" width="0.96" height="0.96"/></clipPath><g clip-path="url(#_clip1)"><rect x="0" y="0" width="0.96" height="0.96" style="fill:#fff;"/><rect x="0.24" y="0.24" width="0.24" height="0.24" style="fill:#1e1d1d;"/><path d="M0.72,0.48l-0,-0.24l-0.24,0l0,0.24l0.24,0Z" style="fill:#1e1d1d;"/><rect x="0" y="0" width="0.24" height="0.24" style="fill:#1e1d1d;"/><path d="M0.96,0.24l-0,-0.24l-0.24,0l0,0.24l0.24,0Z" style="fill:#1e1d1d;"/><rect x="0.72" y="0.72" width="0.24" height="0.24" style="fill:#1e1d1d;"/><path d="M0.24,0.96l-0,-0.24l-0.24,0l0,0.24l0.24,0Z" style="fill:#1e1d1d;"/><rect x="0.48" y="0.48" width="0.24" height="0.24" style="fill:#1e1d1d;"/><path d="M0.48,0.72l-0,-0.24l-0.24,0l0,0.24l0.24,0Z" style="fill:#1e1d1d;"/></g></svg>