<svg width="1" height="1" viewBox="0 0 1 1" fill="none" xmlns="http://www.w3.org/2000/svg">
<path d="M0.887146 0.181427H0.0385742V0.765141H0.887146V0.181427Z" fill="white"/>
<path fill-rule="evenodd" clip-rule="evenodd" d="M0.0385714 0.297139V0.181424H0V0.80371H0.925714V0.765139H0.0385714V0.33571H0.887143V0.297139H0.81V0.258567H0.771429V0.297139H0.694286V0.258567H0.655714V0.297139H0.578571V0.258567H0.54V0.297139H0.462857V0.258567H0.424286V0.297139H0.347143V0.258567H0.308571V0.297139H0.231429V0.258567H0.192857V0.297139H0.115714V0.258567H0.0771429V0.297139H0.0385714V0.297139ZM0.925714 0.181424H0.848571V0.219996H0.887143V0.765139H0.925714V0.181424V0.181424ZM0.366429 0.685424H0.443571V0.646853H0.405V0.415424H0.366429V0.685424ZM0.482143 0.646853V0.608281H0.443571V0.646853H0.482143ZM0.520714 0.608281V0.56971H0.482143V0.608281H0.520714ZM0.559286 0.56971V0.531139H0.520714V0.56971H0.559286ZM0.520714 0.531139V0.492567H0.482143V0.531139H0.520714ZM0.443571 0.453996V0.415424H0.405V0.453996H0.443571V0.492567H0.482143V0.453996H0.443571ZM0.732857 0.219996H0.694286V0.258567H0.732857V0.219996ZM0.617143 0.219996H0.578571V0.258567H0.617143V0.219996ZM0.27 0.219996H0.231429V0.258567H0.27V0.219996ZM0.385714 0.219996H0.347143V0.258567H0.385714V0.219996ZM0.501429 0.219996H0.462857V0.258567H0.501429V0.219996ZM0.848571 0.219996H0.81V0.258567H0.848571V0.219996V0.219996ZM0.154286 0.219996H0.115714V0.258567H0.154286V0.219996ZM0.0771429 0.181424H0.0385714V0.219996H0.0771429V0.181424ZM0.308571 0.181424H0.27V0.219996H0.308571V0.181424ZM0.655714 0.181424H0.617143V0.219996H0.655714V0.181424ZM0.771429 0.181424H0.732857V0.219996H0.771429V0.181424ZM0.424286 0.181424H0.385714V0.219996H0.424286V0.181424ZM0.54 0.181424H0.501429V0.219996H0.54V0.181424ZM0.192857 0.181424H0.154286V0.219996H0.192857V0.181424ZM0.887143 0.142853H0V0.181424H0.887143V0.142853Z" fill="#1E1D1D"/>
</svg>